<svg xmlns="http://www.w3.org/2000/svg" viewBox="0 0 100 100" width="100" height="100"><defs></defs><g>
<g>
	<g>
		<path d="M8.470117,50C5.621078,60.929519 6.733251,70.526129 7.865109,76.71506 C8.996966,82.903991 10.148509,85.685243 18.997262,88.452222 C27.846016,91.219201 44.391982,93.971907 53.966746,90.267247 C63.54151,86.562587 66.145072,76.400561 71.148983,69.938966 C76.152894,63.477371 83.557154,60.716207 87.000202,56.386779 C90.44325,52.057351 89.925085,46.159658 85.548182,34.848481 C81.171279,23.537305 72.935639,6.812643 63.283874,3.025042 C53.632109,-0.76256 42.56422,8.386899 35.937497,12.463172 C29.310773,16.539446 27.125217,15.542534 22.627313,21.175293 C18.129408,26.808051 11.319156,39.070481 8.470117,50 Z" fill="none" stroke="#ffffff" stroke-width="2"/>
	</g>
</g></g></svg>